# xmcd CD database file
#
# Track frame offsets:
#	150
#	17203
#	35502
#	54104
#	69125
#	92702
#	115566
#	132989
#	152891
#	166278
#	178351
#	194001
#	214351
#
# Disc length: 2912 seconds
#
# Revision: 6
# Processed by: cddbd v1.5.2PL0 Copyright (c) Steve Scherf et al.
# Submitted via: CDex 1.50
#
DISCID=b40b5e0d
DTITLE=Verschiedene - Lightning in a Bottle CD01
DYEAR=2004
DGENRE=Blues
TTITLE0=Senie Zelie - Angelique Kidjo
TTITLE1=See That My Grave is Kept Clean - Mavis Staples
TTITLE2=Gamblin' Man - David "Honeyboy" Edwards
TTITLE3=Love in Vain - Keb' Mo'
TTITLE4=Sittin' on Top of the World - James "Blood" Ulmer and Alison Krauss
TTITLE5=Jim Crow Blues - Odetta
TTITLE6=St. Louis Blues - Natalie Cole
TTITLE7=Men Are Just Like Street Cars - Natalie Cole, Mavis Staples and Ruth Brown
TTITLE8=I Can't Be Satisfied - Buddy Guy
TTITLE9=Strange Fruit - India Arie
TTITLE10=Hound Dog - Macy Gray
TTITLE11=The Midnight Special - John Fogerty
TTITLE12=Where'd You Get That Sound - Larry Johnson
EXTD=Type: Blues\nMartin Scorsese Presents\nA Film By Antoine Fuqua\n YEAR: 2004
EXTT0=
EXTT1=
EXTT2=
EXTT3=
EXTT4=
EXTT5=
EXTT6=
EXTT7=
EXTT8=
EXTT9=
EXTT10=
EXTT11=
EXTT12=
PLAYORDER=
